<?xml version="1.0" standalone="no"?>
<!DOCTYPE svg PUBLIC "-//W3C//DTD SVG 20010904//EN"
 "http://www.w3.org/TR/2001/REC-SVG-20010904/DTD/svg10.dtd">
<svg version="1.0" xmlns="http://www.w3.org/2000/svg"
 width="649.000000pt" height="667.000000pt" viewBox="0 0 649.000000 667.000000"
 preserveAspectRatio="xMidYMid meet">

<g transform="translate(0.000000,667.000000) scale(0.100000,-0.100000)"
fill="#000000" stroke="none">
<path d="M3274 6038 c14 -87 84 -165 175 -196 62 -22 67 -12 7 13 -94 38 -166
123 -166 195 0 16 -5 30 -11 30 -8 0 -9 -14 -5 -42z"/>
<path d="M3180 5971 c-21 -41 -12 -81 30 -122 21 -21 47 -39 57 -39 14 0 12 3
-7 17 -76 50 -97 93 -70 144 6 10 8 19 6 19 -3 0 -10 -9 -16 -19z"/>
<path d="M3528 5823 c7 -3 16 -2 19 1 4 3 -2 6 -13 5 -11 0 -14 -3 -6 -6z"/>
<path d="M3561 5816 c3 -3 45 -13 92 -21 316 -55 610 -214 857 -465 76 -76
214 -241 247 -295 25 -40 53 -95 49 -95 -3 0 6 -32 20 -72 13 -39 22 -73 20
-75 -1 -2 -21 0 -42 5 l-39 8 3 76 c3 74 3 76 -26 96 -83 60 -283 50 -368 -17
l-27 -21 -51 95 c-97 179 -225 325 -365 414 -103 66 -329 143 -466 160 -349
42 -802 -53 -1055 -222 -164 -110 -260 -199 -335 -311 -50 -76 -51 -76 -126
-66 -75 11 -158 46 -244 103 -33 23 -53 33 -45 23 38 -47 216 -141 287 -152
42 -6 53 -16 33 -29 -5 -3 -44 -59 -87 -123 -42 -64 -92 -142 -112 -172 -52
-79 -148 -173 -208 -204 -29 -14 -53 -31 -53 -36 0 -10 54 -14 115 -10 16 1
57 10 89 21 33 10 62 17 63 15 5 -4 -31 -136 -52 -196 -28 -80 -66 -231 -85
-347 -36 -208 -79 -358 -118 -406 -14 -18 2 -5 36 28 37 36 77 87 99 130 35
65 38 68 41 40 4 -38 66 -257 99 -349 40 -110 84 -191 136 -250 40 -46 2 -164
-86 -271 -36 -44 -45 -40 -17 8 25 42 70 163 70 186 0 9 -11 -13 -23 -49 -24
-67 -63 -148 -100 -210 l-21 -35 22 19 c12 11 22 25 22 32 0 7 6 11 14 8 14
-5 88 76 122 134 25 44 34 40 34 -15 0 -25 3 -43 7 -40 3 4 21 -31 38 -78 42
-111 128 -240 178 -267 21 -11 18 1 -9 33 -8 8 -16 49 -20 90 l-6 74 23 -35
c13 -19 49 -68 81 -108 89 -113 90 -119 28 -302 -29 -85 -60 -169 -70 -186
-13 -23 -14 -31 -4 -31 20 0 80 166 143 397 22 80 28 132 7 65 l-12 -40 -16
30 c-9 17 -34 50 -55 75 -50 57 -105 138 -122 178 -7 18 -17 29 -22 26 -9 -5
-3 -95 10 -156 5 -21 6 -38 2 -38 -12 0 -101 147 -126 208 -30 74 -30 78 -6
132 16 37 20 40 33 26 20 -19 163 -106 175 -106 6 0 30 -28 54 -62 23 -35 45
-65 48 -68 20 -18 51 -94 52 -126 l1 -39 9 35 c13 52 3 78 -60 155 -31 39 -68
86 -81 105 -31 45 -50 64 -50 51 0 -6 -8 -7 -17 -4 -31 11 -131 82 -146 103
-14 19 -15 18 -27 -26 l-13 -47 -18 84 c-9 46 -25 104 -34 129 -25 69 -61 214
-82 325 -14 79 -18 150 -18 340 1 217 3 255 28 398 37 206 80 345 171 550 47
104 16 59 -40 -58 -61 -129 -124 -310 -148 -429 -46 -221 -47 -660 -2 -874 14
-68 40 -158 56 -199 33 -82 34 -100 2 -56 -55 77 -129 264 -173 435 -26 99
-32 142 -31 223 l0 100 -13 -69 c-14 -67 -66 -189 -98 -231 -13 -17 -13 -7 4
55 10 41 35 154 54 250 19 96 51 227 71 290 53 169 128 389 148 435 30 66 4
30 -34 -48 -30 -62 -41 -75 -80 -94 -61 -30 -170 -66 -177 -59 -3 3 9 18 28
33 95 80 168 166 228 267 76 128 135 204 210 269 66 57 190 141 281 189 71 38
243 106 275 109 68 5 71 -15 16 -92 -36 -51 -101 -170 -101 -186 0 -4 17 21
38 56 84 144 213 263 297 276 22 4 48 9 58 11 30 9 20 -28 -38 -139 -30 -58
-55 -109 -55 -114 0 -4 30 42 66 102 97 162 100 165 198 165 188 0 549 -88
686 -167 188 -109 349 -249 472 -411 113 -148 118 -156 142 -244 27 -97 76
-209 83 -190 3 7 -2 29 -10 50 -23 58 -55 216 -67 337 -19 181 6 226 134 246
73 12 171 -8 193 -38 9 -11 13 -61 14 -152 1 -119 3 -131 13 -99 17 57 27 62
88 52 l53 -9 3 -90 c2 -49 0 -118 -3 -152 -8 -72 -9 -73 -172 -122 -97 -28
-150 -38 -218 -40 -17 -1 -25 -4 -18 -9 21 -13 54 -154 60 -258 16 -265 -86
-622 -196 -687 -39 -23 -51 -16 -51 29 0 33 -6 38 -42 35 -12 -2 -18 7 -21 31
l-4 33 -1 -36 c-2 -30 -7 -38 -37 -52 -19 -9 -54 -29 -77 -44 -24 -15 -46 -26
-49 -26 -8 3 -24 -38 -33 -79 -4 -15 -18 -39 -32 -53 -14 -15 -24 -28 -22 -30
8 -8 92 54 117 86 l25 32 -27 -18 c-26 -17 -27 -17 -27 4 0 44 81 98 159 108
l48 5 9 -38 c4 -22 7 -47 6 -56 -1 -10 2 -18 7 -18 6 0 7 -15 4 -33 -3 -18 0
-50 5 -70 6 -22 7 -37 1 -37 -5 0 -9 -11 -9 -24 0 -14 -16 -55 -35 -92 -31
-60 -33 -65 -12 -46 l24 23 -3 -39 c-2 -32 -12 -48 -61 -95 -61 -58 -76 -66
-48 -23 9 14 15 31 13 37 -3 10 -37 -34 -56 -72 -4 -8 43 -3 57 6 14 8 14 2
-1 -30 -6 -14 -15 -25 -19 -25 -4 0 -15 -3 -25 -7 -14 -5 -16 -3 -11 11 6 15
5 15 -18 -1 -40 -30 -38 -40 9 -33 54 8 63 14 81 57 15 35 15 35 62 29 124
-18 116 -13 109 -65 l-6 -46 33 37 c33 37 156 108 188 108 23 0 42 -34 34 -63
-5 -20 -4 -19 9 3 9 14 15 34 16 46 0 11 12 36 26 55 15 19 52 87 84 152 l58
118 31 -56 c55 -96 172 -205 220 -205 9 0 -2 10 -23 23 -32 17 -44 34 -62 79
-42 109 -94 341 -94 422 l0 25 63 -29 c34 -16 75 -32 91 -36 29 -7 28 -6 -13
31 -42 38 -82 112 -115 213 -10 28 -16 57 -14 63 4 12 229 -282 315 -411 147
-221 266 -441 313 -580 117 -346 107 -529 -38 -708 -37 -46 -136 -122 -158
-122 -8 0 -14 18 -17 53 l-3 52 -2 -62 c-2 -62 -2 -63 -41 -83 l-40 -20 -4 48
-3 47 -2 -52 c-2 -57 -22 -86 -22 -31 0 18 7 123 15 233 14 190 18 302 10 280
-2 -5 -13 -131 -25 -280 -17 -210 -25 -273 -37 -282 -8 -6 -49 -24 -92 -38
-42 -15 -85 -31 -96 -35 -42 -17 -54 -18 -59 -7 -3 9 -5 9 -5 0 -1 -7 -8 -13
-16 -13 -10 0 -15 10 -15 29 0 17 -4 32 -9 35 -17 11 -35 128 -50 321 -9 108
-47 318 -78 424 -8 29 -16 69 -17 89 -1 35 -4 38 -64 62 -59 24 -62 26 -57 55
l4 30 -11 -28 c-8 -17 -17 -26 -26 -22 -7 3 -18 5 -23 5 -5 0 3 25 16 57 14
31 24 58 22 60 -2 2 -22 -23 -44 -54 l-39 -58 5 -90 4 -90 11 75 c8 57 15 76
28 78 9 2 50 -12 90 -31 70 -32 73 -35 75 -69 1 -19 15 -98 31 -174 57 -261
58 -274 39 -482 -9 -103 -19 -198 -22 -212 -5 -22 -3 -21 9 5 9 17 15 51 16
77 0 66 14 66 34 0 10 -31 26 -75 36 -97 61 -135 154 -441 206 -675 14 -63 39
-172 56 -242 l31 -127 -26 -44 c-32 -54 -98 -127 -116 -127 -6 0 -11 -8 -9
-17 2 -13 -13 -26 -52 -45 -30 -14 -66 -29 -80 -33 -24 -6 -24 -5 -6 9 33 27
13 18 -80 -33 -107 -59 -134 -68 -134 -47 0 8 -18 30 -41 49 -60 52 -79 97
-79 187 0 65 -6 90 -36 166 -20 49 -50 123 -66 164 l-31 75 5 225 c3 139 1
208 -4 180 -5 -25 -10 -139 -13 -255 l-4 -210 -33 -20 c-26 -16 -56 -20 -160
-23 -80 -3 -128 -1 -128 5 0 6 8 21 19 34 64 82 121 278 121 415 0 68 -25 154
-45 154 -22 0 -26 -17 -6 -23 47 -12 51 -165 10 -323 -25 -94 -68 -188 -89
-192 -8 -1 -33 14 -55 33 -75 68 -139 116 -176 136 -60 30 -60 22 0 -11 88
-49 137 -95 170 -162 17 -33 31 -68 31 -76 0 -11 14 -13 78 -8 42 3 121 9 174
12 l97 6 34 -53 c18 -30 41 -73 50 -97 16 -39 16 -46 2 -72 -19 -37 -36 -37
-105 -2 -30 16 -93 48 -139 72 l-83 43 -46 -23 c-56 -27 -182 -107 -182 -116
0 -3 24 7 53 23 61 35 136 64 175 68 15 2 43 -5 62 -15 19 -9 47 -23 62 -30
15 -7 32 -26 39 -42 6 -16 14 -27 16 -24 3 2 -1 14 -7 26 -6 12 -10 23 -8 25
2 2 46 -17 98 -44 l95 -47 7 -55 c5 -30 17 -70 28 -90 l20 -36 -73 -6 c-65 -6
-75 -4 -109 18 l-38 25 -1 83 c0 64 -2 77 -10 57 -5 -13 -9 -51 -7 -84 l3 -61
55 -37 c52 -36 57 -37 94 -27 44 12 90 6 111 -15 32 -32 -36 -65 -155 -77 -69
-6 -67 -6 25 -3 94 3 136 12 230 53 11 5 45 18 75 29 163 60 207 79 241 108
51 42 73 44 719 59 l535 12 -575 0 c-316 1 -564 -3 -550 -7 22 -7 21 -8 -12
-9 -21 -1 -38 1 -38 3 0 5 66 107 80 123 17 21 11 66 -30 220 -48 177 -54 230
-25 247 11 6 25 18 31 26 19 23 24 10 33 -91 l7 -94 5 87 c2 56 0 84 -6 81 -5
-3 -4 0 3 8 6 7 12 21 12 31 0 16 6 20 26 17 4 0 10 5 15 12 4 8 11 11 14 8 3
-4 1 -127 -5 -275 -11 -266 -7 -392 11 -363 5 8 9 41 10 74 0 43 3 54 9 40 6
-14 9 3 9 52 1 71 2 73 29 78 15 3 56 12 92 20 36 8 133 26 215 40 302 52 529
111 648 171 77 39 187 140 187 171 0 13 -6 9 -20 -14 -73 -121 -357 -222 -856
-303 -71 -12 -151 -28 -178 -36 -27 -7 -65 -14 -84 -14 l-35 0 7 88 c3 48 9
135 12 193 l7 107 36 17 c52 25 238 90 299 105 29 7 51 14 49 17 -7 6 -116
-23 -255 -69 -67 -22 -124 -39 -125 -37 -2 2 0 83 4 179 4 96 7 237 8 312 l1
137 62 42 c116 79 193 176 230 289 36 113 24 317 -29 485 -63 201 -280 569
-571 969 -114 156 -116 160 -115 210 4 109 24 469 34 614 11 144 6 294 -10
317 -4 6 -15 37 -26 70 -10 33 -24 69 -31 80 -6 11 -23 42 -38 68 l-28 48 44
-22 c58 -30 133 -49 191 -49 34 0 46 -3 41 -11 -4 -7 7 -4 25 7 33 20 44 42
12 24 -44 -23 -169 -2 -268 46 -39 19 -69 46 -119 107 -129 158 -265 286 -438
414 -210 155 -378 219 -671 258 -27 4 -47 4 -44 1z m-620 -266 c10 -6 19 -19
19 -30 0 -12 8 -20 23 -22 14 -2 23 -11 25 -25 4 -29 -31 -40 -62 -19 -13 8
-27 12 -31 8 -4 -4 -28 -12 -55 -18 -65 -15 -100 4 -100 53 0 17 8 24 38 32
20 5 53 14 72 19 47 14 48 14 71 2z m1921 -1267 l2 -118 7 80 c5 60 6 45 3
-55 -2 -74 -8 -162 -14 -195 -6 -33 -13 -76 -16 -95 -5 -30 -7 -32 -16 -15 -6
10 -11 41 -11 69 1 46 0 47 -6 16 l-7 -35 -38 80 c-87 186 -79 157 -77 263 1
43 5 71 10 67 6 -3 8 -14 6 -25 -2 -12 2 -20 10 -20 8 0 15 13 17 33 l4 32 11
-25 12 -25 1 25 c1 25 1 25 10 3 13 -31 23 -29 17 2 -4 22 1 28 27 40 17 7 34
14 39 14 4 1 8 -52 9 -116z m-183 0 c0 -45 -2 -53 -9 -35 -5 12 -7 30 -4 40 5
14 4 14 -5 2 -10 -15 -10 -16 -26 35 -3 11 3 15 20 15 24 0 25 -3 24 -57z
m-57 -33 c4 0 8 -16 8 -36 0 -19 4 -33 9 -30 5 3 25 -34 46 -82 20 -48 55
-120 77 -160 39 -72 40 -77 39 -163 -2 -75 -13 -141 -46 -255 -3 -10 4 -1 15
21 l21 40 -4 -165 c-4 -154 -6 -172 -37 -265 -55 -170 -114 -277 -137 -254 -6
6 -19 6 -36 0 -25 -10 -39 1 -18 13 4 3 11 27 14 53 3 26 9 57 12 68 4 11 -5
-1 -19 -28 -30 -57 -36 -64 -103 -134 -44 -44 -55 -52 -67 -41 -11 11 -10 23
6 78 11 36 22 74 24 85 5 18 4 19 -6 2 -6 -9 -16 -14 -22 -11 -7 5 -9 1 -5 -9
3 -10 2 -17 -3 -17 -12 0 -11 121 0 165 6 23 8 10 10 -50 3 -65 4 -53 10 65 9
173 19 245 31 215 6 -15 8 -10 8 20 1 22 6 56 11 75 34 113 84 317 96 390 8
47 17 159 20 250 3 91 8 176 11 190 l6 25 10 -27 c6 -16 14 -28 19 -28z m199
-465 c-9 -30 -9 -30 -10 10 -1 25 2 36 9 29 6 -6 6 -21 1 -39z m38 -207 c0
-106 4 -224 10 -263 20 -123 43 -219 63 -258 48 -95 -24 -18 -92 99 l-40 69 0
188 c0 174 2 196 26 273 14 46 27 84 29 84 3 0 4 -87 4 -192z m71 -39 c12 -24
33 -59 47 -76 13 -18 22 -33 19 -33 -11 0 -62 25 -88 43 -27 18 -28 22 -27
100 0 79 1 81 14 46 7 -19 23 -55 35 -80z m-567 -440 c-4 -4 -7 18 -5 49 2 37
0 52 -6 44 -7 -10 -11 -7 -14 12 -3 14 -1 23 4 20 4 -3 11 3 16 13 4 11 8 -12
10 -56 2 -41 -1 -78 -5 -82z m-10 -180 c-4 -4 -6 31 -3 79 l5 87 3 -79 c2 -44
-1 -83 -5 -87z m-50 -14 c4 -8 2 -17 -3 -20 -6 -4 -10 3 -10 14 0 25 6 27 13
6z m222 -14 c-3 -6 -16 -16 -28 -22 -21 -11 -21 -10 2 15 23 25 40 29 26 7z
m-159 -26 c-4 -14 -13 -25 -21 -25 -20 0 -19 11 2 37 21 26 28 22 19 -12z
m-90 -2 c-10 -10 -19 5 -10 18 6 11 8 11 12 0 2 -7 1 -15 -2 -18z m1024 -1055
c-1 -96 -20 -349 -29 -388 -6 -25 -14 -85 -17 -133 -6 -87 -6 -88 -37 -101
-18 -7 -35 -12 -39 -9 -8 4 -1 521 8 576 6 39 19 49 27 20 4 -14 5 -13 6 4 1
18 52 62 74 63 4 0 7 -15 7 -32z m-134 -135 c-3 -49 -9 -186 -12 -305 -4 -128
-10 -218 -16 -218 -5 0 -24 -11 -43 -25 l-33 -26 -7 53 c-10 72 -44 175 -96
284 -10 22 -19 46 -19 52 0 6 -11 46 -25 88 -28 86 -28 85 -17 82 13 -3 77 14
82 22 3 5 29 18 58 29 l53 21 -5 -252 -4 -253 9 250 c9 234 11 251 31 268 43
36 50 25 44 -70z m101 -585 c-2 -18 -4 -6 -4 27 0 33 2 48 4 33 2 -15 2 -42 0
-60z m-10 -105 c-2 -16 -4 -5 -4 22 0 28 2 40 4 28 2 -13 2 -35 0 -50z"/>
<path d="M4823 4315 c0 -33 2 -45 4 -27 2 18 2 45 0 60 -2 15 -4 0 -4 -33z"/>
<path d="M4843 4300 c0 -41 2 -58 4 -37 2 20 2 54 0 75 -2 20 -4 3 -4 -38z"/>
<path d="M4802 4335 c0 -16 2 -22 5 -12 2 9 2 23 0 30 -3 6 -5 -1 -5 -18z"/>
<path d="M4590 4155 c0 -71 2 -126 5 -124 7 8 8 239 1 246 -3 4 -6 -51 -6
-122z"/>
<path d="M4753 3865 c0 -22 2 -30 4 -17 2 12 2 30 0 40 -3 9 -5 -1 -4 -23z"/>
<path d="M4703 3815 c0 -33 2 -45 4 -27 2 18 2 45 0 60 -2 15 -4 0 -4 -33z"/>
<path d="M4573 3655 c0 -33 2 -45 4 -27 2 18 2 45 0 60 -2 15 -4 0 -4 -33z"/>
<path d="M4742 3660 c0 -14 2 -19 5 -12 2 6 2 18 0 25 -3 6 -5 1 -5 -13z"/>
<path d="M4694 3585 c0 -49 1 -71 3 -48 2 23 2 64 0 90 -2 26 -3 8 -3 -42z"/>
<path d="M4735 3489 c-4 -6 -5 -12 -2 -15 2 -3 7 2 10 11 7 17 1 20 -8 4z"/>
<path d="M4683 3325 c0 -38 2 -53 4 -32 2 20 2 52 0 70 -2 17 -4 1 -4 -38z"/>
<path d="M4433 3245 c0 -22 2 -30 4 -17 2 12 2 30 0 40 -3 9 -5 -1 -4 -23z"/>
<path d="M4423 3125 c0 -27 2 -38 4 -22 2 15 2 37 0 50 -2 12 -4 0 -4 -28z"/>
<path d="M4673 3110 c0 -25 2 -35 4 -22 2 12 2 32 0 45 -2 12 -4 2 -4 -23z"/>
<path d="M4974 1545 c0 -66 1 -92 3 -57 2 34 2 88 0 120 -2 31 -3 3 -3 -63z"/>
<path d="M4933 1600 c0 -30 2 -43 4 -27 2 15 2 39 0 55 -2 15 -4 2 -4 -28z"/>
<path d="M5124 1325 c0 -55 1 -76 3 -47 2 29 2 74 0 100 -2 26 -3 2 -3 -53z"/>
<path d="M5043 1325 c0 -22 2 -30 4 -17 2 12 2 30 0 40 -3 9 -5 -1 -4 -23z"/>
<path d="M3053 5785 c-205 -42 -442 -135 -598 -234 -33 -21 -80 -50 -105 -64
-25 -14 -61 -40 -80 -57 -27 -25 -21 -22 30 12 231 157 548 287 845 348 53 11
76 18 55 19 -19 0 -85 -11 -147 -24z"/>
<path d="M4101 5433 c-10 -26 -10 -27 4 -9 8 11 15 23 15 28 0 15 -7 8 -19
-19z"/>
<path d="M2160 5349 c-56 -42 -107 -87 -65 -58 89 62 135 99 123 99 -2 0 -28
-19 -58 -41z"/>
<path d="M4253 5310 c0 -25 2 -35 4 -22 2 12 2 32 0 45 -2 12 -4 2 -4 -23z"/>
<path d="M1647 5289 c-5 -18 1 -30 26 -52 18 -16 46 -35 62 -43 l30 -13 -37
-1 c-21 0 -38 -5 -38 -11 0 -6 7 -8 16 -5 9 3 49 6 90 6 43 0 74 4 74 10 0 6
-10 10 -22 10 -26 0 -137 38 -157 54 -8 6 -19 24 -26 40 -12 28 -12 28 -18 5z"/>
<path d="M3095 5266 c3 -16 23 -66 43 -110 91 -203 238 -393 411 -533 24 -19
24 -21 12 -79 -7 -32 -15 -71 -17 -86 -13 -93 -150 -545 -161 -534 -9 9 20
172 34 195 10 16 12 26 4 30 -7 5 -8 18 -2 41 5 19 12 64 15 100 5 57 3 53
-14 -35 -11 -55 -22 -118 -25 -140 -4 -22 -10 -56 -15 -75 -27 -114 -45 -510
-25 -557 7 -15 10 21 10 120 l0 142 51 145 c28 80 67 190 87 245 19 55 45 134
57 175 33 115 52 172 55 168 9 -8 91 -204 121 -286 19 -51 38 -98 44 -105 16
-20 143 -278 138 -282 -2 -2 -44 0 -93 5 -89 10 -427 12 -392 3 25 -7 21 -20
-10 -32 -25 -9 -24 -10 12 -5 l40 6 -35 -22 c-32 -21 -52 -41 -47 -47 2 -1 21
4 42 12 22 8 52 14 66 15 25 0 26 -2 33 -77 8 -100 42 -189 76 -203 15 -6 75
-9 140 -8 l114 3 27 46 c26 44 59 154 59 196 0 19 3 20 53 10 65 -12 73 -20
53 -48 -9 -13 -16 -30 -15 -39 0 -10 2 -11 6 -2 2 6 11 12 18 12 8 0 19 8 24
18 18 31 13 -17 -13 -121 -29 -112 -42 -139 -114 -235 -75 -100 -103 -120
-177 -125 l-60 -3 67 -2 c59 -2 70 1 100 25 18 16 38 35 45 43 7 8 13 11 13 6
0 -10 42 63 104 184 31 61 48 110 60 175 38 213 69 626 48 639 -6 4 -10 -30
-11 -95 -1 -56 -4 -105 -7 -110 -2 -5 -6 -43 -8 -86 -2 -43 -7 -101 -11 -129
l-7 -51 -40 10 c-40 10 -40 10 -17 23 22 12 19 12 -27 7 l-52 -6 -7 99 c-4 55
-11 120 -15 147 -4 26 -3 47 1 47 5 0 9 -7 9 -15 0 -8 4 -15 8 -15 4 0 16 -13
25 -30 10 -16 22 -30 28 -30 5 0 -2 17 -16 38 -31 46 -61 109 -70 145 -4 15
-11 30 -16 33 -5 3 -9 16 -9 29 0 13 -4 27 -10 30 -12 7 -12 -64 -1 -142 5
-36 4 -53 -3 -53 -8 0 -8 -3 0 -8 9 -7 44 -141 48 -189 2 -13 6 -26 9 -30 12
-12 7 -53 -6 -53 -8 0 -14 6 -14 13 -1 6 -31 66 -67 132 -48 86 -65 127 -61
143 3 13 2 21 -3 18 -9 -5 -86 177 -96 226 -3 13 -11 46 -19 73 -17 59 -28
115 -22 115 2 0 26 -14 53 -30 62 -39 165 -74 278 -95 49 -9 103 -19 119 -23
36 -8 227 1 205 10 -8 3 -55 16 -105 28 -112 28 -173 58 -239 118 l-51 46 40
-43 c58 -62 119 -101 199 -127 86 -28 58 -31 -86 -9 -119 18 -191 41 -333 110
-75 36 -125 67 -157 99 -26 25 -51 46 -55 46 -14 0 -188 179 -234 240 -64 86
-145 227 -185 320 -19 47 -33 72 -29 56z m472 -798 c-3 -7 -5 -2 -5 12 0 14 2
19 5 13 2 -7 2 -19 0 -25z m-10 -40 c-3 -8 -6 -5 -6 6 -1 11 2 17 5 13 3 -3 4
-12 1 -19z m-10 -40 c-3 -8 -6 -5 -6 6 -1 11 2 17 5 13 3 -3 4 -12 1 -19z m86
-738 c-4 -16 -14 -20 -44 -20 -46 0 -51 18 -11 41 33 20 63 9 55 -21z m228
-98 c-33 -65 -63 -82 -142 -82 -64 0 -70 2 -98 33 -19 20 -31 43 -31 60 0 25
3 27 23 21 12 -3 23 -10 25 -14 11 -28 33 -42 72 -45 l45 -5 -42 11 c-22 5
-44 16 -47 24 -3 8 -1 15 4 15 6 0 10 -4 10 -10 0 -15 61 -12 94 5 37 20 46
12 12 -10 -33 -22 -34 -38 -2 -24 13 6 32 27 42 45 10 19 24 34 31 34 7 0 14
6 14 13 1 6 4 2 6 -10 2 -12 -5 -39 -16 -61z"/>
<path d="M1612 5245 c-2 -47 20 -85 49 -85 10 0 19 5 19 10 0 6 -8 10 -19 10
-26 0 -39 19 -44 65 l-4 40 -1 -40z"/>
<path d="M2010 5244 c-30 -19 -50 -34 -44 -34 12 0 104 57 104 65 0 6 4 8 -60
-31z"/>
<path d="M4293 5210 c0 -25 2 -35 4 -22 2 12 2 32 0 45 -2 12 -4 2 -4 -23z"/>
<path d="M4333 5200 c0 -30 2 -43 4 -27 2 15 2 39 0 55 -2 15 -4 2 -4 -28z"/>
<path d="M4393 5180 c0 -30 2 -43 4 -27 2 15 2 39 0 55 -2 15 -4 2 -4 -28z"/>
<path d="M4433 5155 c0 -27 2 -38 4 -22 2 15 2 37 0 50 -2 12 -4 0 -4 -28z"/>
<path d="M4261 5154 c0 -11 3 -14 6 -6 3 7 2 16 -1 19 -3 4 -6 -2 -5 -13z"/>
<path d="M5000 4930 c-25 -11 -39 -19 -32 -19 16 -1 82 26 82 33 0 4 -1 6 -2
5 -2 -1 -23 -9 -48 -19z"/>
<path d="M2752 4888 c-6 -18 -16 -69 -23 -113 -12 -72 -17 -84 -51 -117 -31
-31 -47 -38 -81 -40 l-42 -1 38 -4 c26 -3 49 2 74 17 19 11 37 19 39 17 2 -1
-3 -59 -11 -127 -35 -292 -43 -403 -40 -535 2 -77 7 -155 11 -172 l7 -33 -59
0 c-55 0 -61 2 -91 37 -18 20 -33 47 -33 60 0 13 -4 22 -9 19 -5 -4 -12 0 -14
6 -4 9 -6 8 -6 -3 -1 -15 56 -101 71 -107 16 -7 7 -22 -12 -22 -11 0 -23 8
-27 18 -3 9 -11 24 -18 32 -35 45 -93 230 -72 230 6 0 3 6 -5 13 -51 38 -45
463 8 635 5 14 4 14 -4 2 -14 -22 -35 -128 -86 -440 -76 -455 -65 -615 62
-900 11 -25 38 -66 61 -91 l41 -47 -43 3 c-163 12 -308 188 -378 459 -15 56
-23 126 -26 226 -9 222 14 373 87 593 36 105 37 120 6 52 -36 -80 -84 -233
-101 -325 -19 -100 -21 -387 -4 -489 21 -126 67 -238 144 -345 l45 -64 -26
-45 c-23 -42 -24 -50 -14 -88 9 -31 9 -57 0 -103 -11 -57 -10 -65 14 -121 26
-63 34 -54 15 20 -8 31 -8 57 0 94 8 37 8 65 0 102 -9 44 -9 56 7 84 l17 33
47 -34 c26 -19 52 -34 57 -34 13 0 46 -39 60 -70 41 -92 56 -119 84 -153 17
-21 49 -47 71 -58 80 -41 213 -141 234 -175 12 -20 25 -54 28 -76 5 -29 10
-38 21 -34 26 10 24 -9 -7 -59 -17 -28 -49 -90 -71 -140 -55 -125 -178 -490
-182 -539 -6 -78 -24 -133 -79 -248 -31 -64 -56 -119 -56 -122 0 -3 -28 -54
-62 -114 -95 -166 -91 -155 -83 -230 11 -107 35 -200 70 -271 39 -78 70 -160
63 -166 -2 -3 -28 -8 -57 -12 l-53 -8 -4 -43 c-4 -38 0 -47 26 -72 29 -27 85
-48 97 -36 9 8 -17 36 -33 36 -8 0 -14 11 -14 26 0 22 3 25 23 21 12 -3 56
-13 99 -22 42 -8 93 -21 113 -28 36 -13 36 -13 -60 -25 -54 -7 -105 -17 -114
-23 -12 -8 -8 -9 19 -4 59 9 220 18 220 12 0 -13 -43 -77 -51 -77 -5 0 -9 -6
-9 -13 0 -36 -170 -143 -242 -152 -18 -3 -48 -9 -67 -15 -45 -13 -53 -6 -34
33 9 17 20 40 24 49 13 27 -10 125 -52 224 -21 50 -39 104 -39 120 0 16 -4 46
-9 67 -11 44 -4 47 26 9 12 -15 34 -40 49 -57 l26 -30 -17 30 c-10 17 -34 53
-55 80 -21 28 -43 60 -49 73 -6 12 -17 22 -24 22 -44 0 -238 -289 -237 -352 0
-13 12 -41 25 -63 23 -37 34 -103 19 -117 -3 -4 -24 0 -48 8 -44 15 -89 10
-346 -42 -101 -20 -118 -20 -189 -2 -39 10 -56 20 -62 36 -5 12 -13 22 -18 22
-5 0 -21 20 -35 44 -47 81 -55 62 -11 -24 9 -17 13 -35 10 -40 -3 -6 -1 -10 6
-10 7 0 23 -9 35 -21 54 -50 190 -59 317 -19 37 11 71 18 76 15 5 -3 20 -1 33
4 66 24 201 19 161 -7 -19 -12 131 -6 171 8 21 6 61 9 94 7 31 -3 66 -2 77 3
11 5 14 9 7 9 -17 1 -5 21 13 21 12 0 12 -7 0 -48 -19 -60 -19 -68 1 -76 22
-8 78 7 215 60 125 48 152 69 202 155 15 25 27 54 27 65 0 22 -45 44 -141 69
-35 9 -84 30 -108 46 l-44 29 31 0 c18 0 33 -1 35 -2 1 -1 11 4 23 10 18 10
19 16 13 69 -5 32 -11 152 -15 268 -6 188 -4 225 15 355 43 278 69 367 123
417 42 39 209 103 270 103 16 0 16 -3 3 -40 -18 -51 -12 -67 58 -153 69 -84
76 -112 49 -214 -46 -175 -55 -290 -27 -361 10 -24 20 -41 22 -38 3 2 -1 14
-7 26 -16 30 -14 171 4 263 23 115 57 237 67 237 14 0 11 -36 -12 -140 -11
-52 -23 -144 -26 -205 -4 -96 -2 -117 15 -160 25 -61 28 -43 5 27 -14 45 -15
65 -4 168 16 156 61 287 124 365 l24 29 22 -42 c11 -22 21 -46 21 -51 0 -6
-18 -34 -40 -63 -48 -63 -48 -63 21 -207 34 -70 65 -117 95 -147 l45 -44 -44
-92 c-64 -133 -67 -159 -6 -48 69 124 94 189 129 328 16 63 31 117 34 119 7 8
139 -260 180 -367 21 -52 41 -104 45 -114 7 -18 8 -18 14 -2 4 9 3 15 -2 12
-10 -6 -33 73 -25 86 3 4 1 8 -5 8 -5 0 -13 10 -16 23 -8 28 -21 57 -81 182
-27 55 -49 109 -49 120 -2 30 -64 144 -65 120 -2 -30 -6 -45 -24 -98 -9 -26
-16 -52 -16 -58 0 -6 -9 -42 -21 -79 -19 -62 -23 -68 -50 -72 -26 -4 -34 1
-58 36 -43 64 -111 202 -111 225 0 21 34 74 78 121 40 42 155 199 185 250 28
50 77 197 77 233 0 42 11 6 35 -114 13 -68 38 -173 55 -234 17 -60 36 -131 42
-158 10 -48 9 -49 -25 -84 -37 -37 -59 -83 -48 -100 3 -6 33 -16 66 -23 33 -7
72 -19 87 -26 21 -11 33 -11 55 -3 63 25 282 74 332 74 54 0 54 0 105 -60 28
-33 63 -76 77 -95 15 -19 30 -32 34 -28 9 8 -84 145 -121 179 -28 25 -31 26
-124 18 -87 -7 -284 -49 -319 -69 -8 -4 -32 -2 -55 5 -23 7 -59 17 -81 21 -72
16 -62 35 98 195 130 130 145 149 161 200 28 91 45 221 52 390 l7 159 -35 0
c-30 0 -37 4 -42 26 -4 15 -9 25 -11 22 -2 -2 3 -31 12 -63 12 -44 16 -101 16
-210 -1 -256 -36 -379 -131 -459 l-46 -38 -28 31 c-15 17 -28 40 -28 51 0 11
-4 28 -9 38 -13 24 -36 109 -66 242 -14 63 -36 158 -48 209 l-22 95 -1 -80 c0
-71 -29 -209 -52 -250 -5 -9 -24 -4 -77 20 -53 25 -81 46 -115 88 l-45 55 -42
-28 c-125 -86 -50 41 120 202 42 40 94 99 114 131 23 36 40 53 43 46 4 -7 15
-51 25 -97 11 -46 21 -79 23 -73 1 5 -4 37 -13 71 -19 76 -45 251 -45 314 0
59 19 106 56 141 16 14 83 58 149 97 162 95 220 132 258 164 l32 27 -30 -18
c-16 -10 -57 -33 -90 -52 -33 -18 -65 -38 -71 -43 -6 -4 -71 -40 -145 -78
-151 -78 -173 -101 -171 -177 3 -57 -14 -72 -138 -119 -123 -46 -165 -51 -294
-36 -136 17 -175 37 -207 102 -13 29 -28 59 -33 68 -9 18 -96 81 -112 81 -5 1
-43 24 -84 53 -95 67 -150 141 -150 204 0 42 1 44 28 42 86 -7 139 11 72 24
-36 8 -123 85 -116 104 3 7 1 13 -5 13 -17 0 -69 127 -86 209 -17 87 -14 112
14 105 10 -3 38 2 62 11 58 20 61 19 61 -12 0 -46 27 -133 54 -173 l25 -38
-42 5 c-40 4 -41 3 -18 -10 18 -11 20 -16 10 -20 -8 -4 0 -3 16 1 17 4 59 6
95 5 36 -2 81 0 100 4 33 6 34 6 10 13 -14 5 -43 8 -66 9 -42 1 -60 14 -84 59
-14 28 -13 28 22 37 20 5 27 3 32 -12 3 -10 19 -26 34 -35 27 -16 30 -16 61 3
17 10 34 26 37 34 4 8 10 15 14 15 11 0 4 -43 -11 -71 -11 -21 -11 -23 3 -11
13 10 17 10 21 0 3 -8 10 0 17 17 13 32 17 110 9 185 -4 45 -4 45 25 43 l30
-2 -25 23 c-13 13 -27 21 -31 19 -5 -2 -8 -2 -8 2 0 3 10 10 23 15 16 6 4 9
-49 9 -77 1 -84 6 -84 59 l1 27 15 -25 c10 -17 13 -18 9 -5 -16 44 -17 110 -5
220 7 63 16 118 21 121 5 3 9 -2 9 -10 0 -20 83 -222 127 -309 39 -79 74 -208
75 -278 0 -27 2 -49 3 -49 7 0 44 90 56 133 l11 41 66 -71 c60 -63 180 -151
270 -197 51 -26 37 0 -15 30 -114 64 -152 92 -211 154 -35 36 -81 92 -102 125
l-40 60 -1 -70 c-1 -76 -12 -131 -22 -105 -3 8 -12 45 -21 81 -8 36 -29 102
-45 145 -48 131 -101 265 -116 294 -55 107 -58 524 -4 722 13 49 5 63 -9 16z
m-315 -1038 l39 -80 -80 0 c-72 0 -78 -1 -60 -15 18 -14 18 -14 -8 -15 -28 0
-28 0 -28 68 0 53 14 171 41 342 0 3 13 -46 29 -108 16 -62 46 -148 67 -192z
m143 -239 c0 -25 -11 -32 -61 -37 -45 -6 -54 14 -17 40 33 23 78 21 78 -3z
m343 -970 l45 -19 22 -99 c13 -53 31 -118 42 -143 28 -65 78 -224 77 -246 0
-17 -1 -17 -16 4 -22 31 -38 28 -77 -16 -25 -27 -80 -61 -193 -117 -87 -43
-175 -89 -195 -102 -21 -12 -40 -23 -43 -23 -16 0 -3 53 100 390 32 104 148
370 161 370 3 0 2 -5 -2 -12 -4 -7 -3 -8 4 -4 7 4 12 14 12 22 0 19 9 18 63
-5z m214 -104 c-48 -15 -39 -28 11 -16 54 12 71 10 37 -5 l-30 -14 42 5 c45 6
97 -3 89 -15 -2 -4 14 -6 37 -5 35 2 38 1 17 -6 -21 -8 -22 -9 -5 -10 20 -2
20 -2 1 -16 -17 -13 -17 -15 -3 -15 11 0 14 -5 10 -17 -5 -12 -3 -14 7 -8 9 5
11 4 6 -4 -4 -6 -12 -9 -17 -6 -5 4 -9 2 -9 -4 0 -14 -100 -110 -133 -127 -42
-22 -68 -14 -99 31 -30 44 -64 172 -53 204 7 23 46 39 95 39 l35 0 -38 -11z
m63 -477 c0 -5 -4 -10 -10 -10 -5 0 -25 -14 -45 -31 -24 -22 -35 -26 -35 -16
0 8 14 27 31 41 31 27 59 34 59 16z m-130 -20 c0 -5 -6 -10 -14 -10 -8 0 -18
5 -21 10 -3 6 3 10 14 10 12 0 21 -4 21 -10z m181 -17 c18 -21 16 -90 -4 -129
-24 -46 -82 -113 -127 -145 -39 -28 -42 -29 -70 -14 -33 17 -91 72 -116 110
-14 22 -15 32 -4 73 30 110 63 131 141 91 33 -17 38 -23 29 -35 -19 -22 -9
-17 50 26 61 43 81 48 101 23z m133 -73 c17 -6 26 -17 26 -31 0 -37 -130 -216
-148 -205 -5 3 -17 23 -27 45 l-18 40 25 33 c14 18 32 47 41 65 32 61 53 72
101 53z m-881 -381 c-24 -129 -27 -164 -25 -334 1 -104 6 -242 11 -305 5 -63
5 -119 0 -124 -13 -15 -67 51 -104 128 -39 81 -60 157 -74 266 l-10 75 55 105
c30 58 80 158 111 222 31 65 58 116 60 114 2 -2 -8 -68 -24 -147z m1008 -59
c10 -22 16 -40 14 -40 -5 0 -45 76 -45 86 0 14 13 -6 31 -46z m-1347 -644 c9
-30 16 -58 16 -63 0 -17 41 -134 66 -188 24 -53 34 -128 20 -142 -6 -7 -269
-64 -272 -60 -1 1 -5 22 -8 47 -3 25 -15 68 -27 96 -17 43 -19 58 -10 90 18
67 163 274 191 274 5 0 16 -24 24 -54z m206 -157 c0 -6 -4 -7 -10 -4 -5 3 -10
11 -10 16 0 6 5 7 10 4 6 -3 10 -11 10 -16z m-26 -14 c3 -8 1 -15 -4 -15 -6 0
-10 7 -10 15 0 8 2 15 4 15 2 0 6 -7 10 -15z"/>
<path d="M3222 1973 c1 -23 -5 -41 -22 -60 -70 -76 -100 -103 -120 -103 -35 0
-85 26 -108 56 -16 22 -21 25 -22 12 0 -20 49 -79 91 -109 37 -26 46 -20 132
75 70 78 87 120 58 149 -9 9 -11 4 -9 -20z"/>
<path d="M4903 4903 c9 -2 25 -2 35 0 9 3 1 5 -18 5 -19 0 -27 -2 -17 -5z"/>
<path d="M2086 4833 c-6 -14 -5 -15 5 -6 7 7 10 15 7 18 -3 3 -9 -2 -12 -12z"/>
<path d="M4461 4694 c-1 -75 9 -145 34 -231 12 -41 21 -54 40 -59 28 -7 143
10 227 33 67 19 86 41 93 110 4 35 3 41 -3 23 -30 -88 -47 -99 -152 -102 -91
-2 -137 10 -165 44 -27 32 -27 32 -54 163 l-19 90 -1 -71z"/>
<path d="M1468 4423 c7 -3 16 -2 19 1 4 3 -2 6 -13 5 -11 0 -14 -3 -6 -6z"/>
<path d="M4152 4310 c0 -19 2 -27 5 -17 2 9 2 25 0 35 -3 9 -5 1 -5 -18z"/>
<path d="M2427 4039 c7 -7 15 -10 18 -7 3 3 -2 9 -12 12 -14 6 -15 5 -6 -5z"/>
<path d="M2472 4025 c7 -7 158 -8 165 -1 4 3 -33 6 -82 6 -49 0 -86 -2 -83 -5z"/>
<path d="M3180 3950 c-30 -10 -48 -18 -39 -19 20 -1 81 19 94 30 11 11 13 11
-55 -11z"/>
<path d="M2212 3900 c0 -19 2 -27 5 -17 2 9 2 25 0 35 -3 9 -5 1 -5 -18z"/>
<path d="M3066 3922 c-3 -5 8 -6 25 -4 16 2 29 6 29 8 0 8 -49 4 -54 -4z"/>
<path d="M2983 3913 c15 -2 37 -2 50 0 12 2 0 4 -28 4 -27 0 -38 -2 -22 -4z"/>
<path d="M3311 3744 c0 -11 3 -14 6 -6 3 7 2 16 -1 19 -3 4 -6 -2 -5 -13z"/>
<path d="M4422 3715 c-24 -23 -71 -57 -105 -74 -34 -17 -55 -31 -47 -31 33 0
171 96 191 133 13 23 10 21 -39 -28z"/>
<path d="M3162 3680 c0 -19 2 -27 5 -17 2 9 2 25 0 35 -3 9 -5 1 -5 -18z"/>
<path d="M2043 3515 c0 -33 2 -45 4 -27 2 18 2 45 0 60 -2 15 -4 0 -4 -33z"/>
<path d="M4151 3464 c0 -11 3 -14 6 -6 3 7 2 16 -1 19 -3 4 -6 -2 -5 -13z"/>
<path d="M2071 3434 c0 -11 3 -14 6 -6 3 7 2 16 -1 19 -3 4 -6 -2 -5 -13z"/>
<path d="M2054 3386 c-8 -32 -1 -81 11 -79 5 1 11 7 13 15 2 9 0 8 -7 -2 -9
-11 -10 -2 -5 38 7 53 -1 71 -12 28z"/>
<path d="M2081 3374 c0 -11 3 -14 6 -6 3 7 2 16 -1 19 -3 4 -6 -2 -5 -13z"/>
<path d="M2091 3274 c0 -11 3 -14 6 -6 3 7 2 16 -1 19 -3 4 -6 -2 -5 -13z"/>
<path d="M2121 3254 c0 -11 3 -14 6 -6 3 7 2 16 -1 19 -3 4 -6 -2 -5 -13z"/>
<path d="M2111 3204 c0 -11 3 -14 6 -6 3 7 2 16 -1 19 -3 4 -6 -2 -5 -13z"/>
<path d="M3748 3103 c7 -3 16 -2 19 1 4 3 -2 6 -13 5 -11 0 -14 -3 -6 -6z"/>
<path d="M1911 3064 c0 -11 3 -14 6 -6 3 7 2 16 -1 19 -3 4 -6 -2 -5 -13z"/>
<path d="M3078 2888 c5 -5 16 -8 23 -6 8 3 3 7 -10 11 -17 4 -21 3 -13 -5z"/>
<path d="M3985 2760 c-3 -5 -1 -10 4 -10 6 0 11 5 11 10 0 6 -2 10 -4 10 -3 0
-8 -4 -11 -10z"/>
<path d="M3949 2723 c-13 -16 -12 -17 4 -4 9 7 17 15 17 17 0 8 -8 3 -21 -13z"/>
<path d="M4317 2643 c-19 -43 -63 -143 -97 -223 -33 -80 -65 -152 -70 -160 -7
-12 -23 0 -78 60 -98 108 -147 158 -131 135 8 -10 21 -26 29 -35 123 -133 231
-278 300 -404 40 -73 109 -261 111 -300 0 -12 3 -15 6 -9 2 7 -3 56 -12 110
-19 110 -78 255 -100 247 -8 -3 -18 3 -24 14 -9 18 -7 21 25 27 25 4 43 1 60
-10 29 -19 31 -12 4 17 l-20 22 35 29 c31 25 35 34 35 77 0 43 3 49 30 60 24
10 28 17 25 39 -2 14 -7 47 -10 73 -3 26 -14 57 -24 69 l-18 23 -47 -28 c-26
-15 -50 -25 -53 -22 -12 11 20 163 44 209 13 27 23 51 20 53 -2 2 -20 -31 -40
-73z m103 -290 c0 -32 -4 -43 -15 -43 -11 0 -15 11 -15 39 0 22 -4 43 -10 46
-6 4 -10 -32 -10 -99 l0 -106 -40 -26 c-22 -15 -38 -30 -35 -34 3 -4 -11 -10
-31 -12 -32 -4 -38 0 -70 45 l-36 49 33 79 c37 91 44 98 130 144 l64 34 17
-37 c10 -20 18 -56 18 -79z"/>
<path d="M3967 2699 c-9 -5 -22 -7 -28 -3 -16 10 -119 -101 -118 -128 1 -30
17 -69 19 -48 1 8 3 20 5 25 1 6 3 17 3 26 1 9 36 43 77 74 41 32 75 59 75 61
0 7 -15 4 -33 -7z"/>
<path d="M4867 2510 c24 -10 373 -18 373 -9 0 11 -118 19 -259 18 -88 0 -128
-3 -114 -9z"/>
<path d="M4808 2503 c7 -3 16 -2 19 1 4 3 -2 6 -13 5 -11 0 -14 -3 -6 -6z"/>
<path d="M4491 2474 c0 -11 3 -14 6 -6 3 7 2 16 -1 19 -3 4 -6 -2 -5 -13z"/>
<path d="M5223 2435 c0 -22 2 -30 4 -17 2 12 2 30 0 40 -3 9 -5 -1 -4 -23z"/>
<path d="M5266 2430 c3 -14 11 -32 16 -40 6 -10 7 -7 2 10 -3 14 -11 32 -16
40 -6 10 -7 7 -2 -10z"/>
<path d="M1445 2305 c-51 -26 -65 -51 -65 -116 0 -57 14 -127 46 -222 9 -27
14 -50 13 -52 -2 -1 -50 12 -106 31 -126 43 -238 58 -310 44 -142 -30 -253
-181 -253 -347 0 -104 55 -232 168 -388 24 -33 60 -75 79 -94 l35 -33 -44 -47
c-59 -61 -82 -101 -106 -186 -53 -189 -58 -265 -23 -333 12 -24 21 -46 19 -48
-2 -2 -120 -8 -262 -13 -142 -5 -260 -12 -264 -16 -3 -3 118 -5 271 -3 152 2
278 0 280 -3 6 -16 82 -59 104 -59 13 0 35 -7 48 -16 13 -9 28 -13 34 -10 13
8 44 103 38 119 -4 14 -37 -44 -37 -67 0 -25 -15 -26 -71 -5 -68 26 -89 46
-129 120 -31 59 -31 60 -21 143 23 194 56 289 122 361 35 38 47 45 80 45 36 0
42 -4 89 -67 62 -84 117 -195 147 -293 12 -41 22 -68 22 -60 2 56 -70 239
-137 345 -51 82 -66 95 -105 95 -23 0 -41 12 -79 53 -136 146 -238 344 -238
462 0 122 78 252 184 307 34 17 53 20 140 16 81 -3 124 -12 219 -42 l119 -37
30 -67 c17 -37 62 -132 101 -212 65 -135 113 -260 99 -260 -3 0 -32 7 -64 16
-57 16 -60 16 -86 -3 -40 -30 -135 -241 -126 -279 4 -16 36 -57 71 -91 35 -35
61 -63 59 -63 -2 0 -24 12 -50 26 -25 14 -46 24 -46 21 0 -6 119 -77 129 -77
4 0 17 -10 29 -23 33 -35 26 -127 -13 -187 -38 -58 -153 -97 -206 -70 -16 8
-20 9 -13 1 45 -48 226 -7 285 65 13 16 12 16 -13 0 -16 -10 -28 -14 -28 -8 0
6 4 13 9 16 5 3 12 23 16 43 4 21 11 43 16 50 6 7 6 13 0 17 -5 3 -7 15 -4 25
5 19 -3 29 -155 175 -59 57 -72 75 -72 100 0 40 38 121 90 191 41 55 43 57 78
50 48 -8 124 -54 192 -117 84 -77 111 -95 160 -108 l45 -12 57 64 57 63 1 -36
c0 -54 -38 -164 -77 -220 -19 -28 -33 -53 -31 -55 3 -2 33 24 69 59 l65 62 12
105 c7 58 18 125 25 149 14 44 13 54 -14 247 -7 45 -10 117 -7 160 4 56 3 72
-4 54 -9 -24 -5 -205 8 -373 l6 -79 -65 -64 c-36 -35 -68 -64 -71 -64 -10 0
-58 118 -88 219 -23 77 -32 127 -32 181 -1 96 14 122 171 296 130 143 179 203
90 109 -31 -32 -58 -57 -60 -55 -2 3 -13 21 -25 40 -36 60 -293 307 -342 329
-58 26 -237 30 -285 6z m257 -24 c41 -22 287 -256 350 -334 l30 -37 -72 -74
c-39 -40 -84 -91 -98 -114 l-27 -40 -55 27 c-30 15 -80 43 -111 62 -31 19 -97
54 -148 79 l-91 45 -29 75 c-50 130 -61 169 -61 218 0 93 49 125 182 119 64
-3 98 -10 130 -26z m-97 -472 c51 -28 126 -79 168 -114 41 -35 77 -61 80 -59
3 3 0 -16 -5 -41 -7 -31 -6 -79 1 -146 15 -140 19 -129 -43 -129 -76 0 -105
12 -99 42 7 37 -28 130 -120 321 -47 97 -83 177 -80 177 3 0 47 -23 98 -51z
m290 -401 c15 -46 43 -116 62 -157 49 -105 36 -141 -42 -111 -15 6 -64 43
-109 83 -45 39 -92 80 -106 89 -22 16 -18 15 29 -2 30 -10 58 -17 63 -14 4 3
8 0 8 -5 0 -6 6 -11 14 -11 7 0 29 -11 48 -24 32 -21 35 -22 31 -5 -3 11 -8
19 -12 19 -4 0 -8 42 -10 93 -1 50 -4 100 -7 110 -3 9 -3 17 -1 17 2 0 17 -37
32 -82z"/>
<path d="M5242 2250 c0 -19 2 -27 5 -17 2 9 2 25 0 35 -3 9 -5 1 -5 -18z"/>
<path d="M5321 2214 c0 -11 3 -14 6 -6 3 7 2 16 -1 19 -3 4 -6 -2 -5 -13z"/>
<path d="M5233 2120 c0 -30 2 -43 4 -27 2 15 2 39 0 55 -2 15 -4 2 -4 -28z"/>
<path d="M5312 2085 c0 -16 2 -22 5 -12 2 9 2 23 0 30 -3 6 -5 -1 -5 -18z"/>
<path d="M4832 2060 c0 -14 2 -19 5 -12 2 6 2 18 0 25 -3 6 -5 1 -5 -13z"/>
<path d="M5223 1995 c0 -38 2 -53 4 -32 2 20 2 52 0 70 -2 17 -4 1 -4 -38z"/>
<path d="M5312 2025 c0 -16 2 -22 5 -12 2 9 2 23 0 30 -3 6 -5 -1 -5 -18z"/>
<path d="M4404 2013 c9 -17 39 -62 68 -100 28 -37 86 -135 128 -218 42 -82
100 -193 128 -245 28 -52 66 -134 86 -182 34 -87 55 -129 56 -116 1 22 -148
356 -203 455 -36 65 -80 147 -98 183 -28 56 -43 79 -88 136 -4 5 -25 32 -46
60 -48 63 -51 66 -31 27z"/>
<path d="M3799 1853 c-13 -16 -12 -17 4 -4 9 7 17 15 17 17 0 8 -8 3 -21 -13z"/>
<path d="M5102 1850 c0 -14 2 -19 5 -12 2 6 2 18 0 25 -3 6 -5 1 -5 -13z"/>
<path d="M2161 1834 c0 -11 3 -14 6 -6 3 7 2 16 -1 19 -3 4 -6 -2 -5 -13z"/>
<path d="M4211 1834 c0 -11 3 -14 6 -6 3 7 2 16 -1 19 -3 4 -6 -2 -5 -13z"/>
<path d="M4901 1754 c0 -11 3 -14 6 -6 3 7 2 16 -1 19 -3 4 -6 -2 -5 -13z"/>
<path d="M4392 1655 c0 -16 2 -22 5 -12 2 9 2 23 0 30 -3 6 -5 -1 -5 -18z"/>
<path d="M2258 1663 c7 -3 16 -2 19 1 4 3 -2 6 -13 5 -11 0 -14 -3 -6 -6z"/>
<path d="M4401 1563 c-1 -29 3 -53 9 -53 12 0 12 44 0 80 -6 20 -8 14 -9 -27z"/>
<path d="M3363 1493 c-22 -27 -43 -55 -48 -63 -19 -32 25 12 60 61 45 62 38
63 -12 2z"/>
<path d="M4403 1450 c0 -25 2 -35 4 -22 2 12 2 32 0 45 -2 12 -4 2 -4 -23z"/>
<path d="M3655 1382 c63 -66 219 -192 209 -170 -3 7 -37 39 -77 70 -40 32 -85
70 -102 85 -78 69 -85 73 -30 15z"/>
<path d="M5978 1373 c7 -3 16 -2 19 1 4 3 -2 6 -13 5 -11 0 -14 -3 -6 -6z"/>
<path d="M4732 1350 c0 -14 2 -19 5 -12 2 6 2 18 0 25 -3 6 -5 1 -5 -13z"/>
<path d="M5868 1363 c7 -3 16 -2 19 1 4 3 -2 6 -13 5 -11 0 -14 -3 -6 -6z"/>
<path d="M5798 1353 c7 -3 16 -2 19 1 4 3 -2 6 -13 5 -11 0 -14 -3 -6 -6z"/>
<path d="M5748 1343 c7 -3 16 -2 19 1 4 3 -2 6 -13 5 -11 0 -14 -3 -6 -6z"/>
<path d="M5698 1333 c6 -2 18 -2 25 0 6 3 1 5 -13 5 -14 0 -19 -2 -12 -5z"/>
<path d="M4739 1228 c4 -28 6 -29 9 -9 2 13 0 27 -5 32 -6 6 -7 -3 -4 -23z"/>
<path d="M4753 1105 c0 -44 2 -61 4 -37 2 23 2 59 0 80 -2 20 -4 1 -4 -43z"/>
<path d="M3086 1114 c-49 -7 -92 -16 -95 -20 -6 -6 21 -3 179 21 52 8 69 13
45 13 -22 0 -80 -6 -129 -14z"/>
<path d="M3742 1063 c-6 -32 -14 -112 -18 -179 -6 -110 -5 -125 15 -169 27
-61 35 -55 15 14 -14 45 -15 78 -6 219 5 92 8 168 7 170 -1 1 -7 -23 -13 -55z"/>
<path d="M3823 1113 c9 -2 23 -2 30 0 6 3 -1 5 -18 5 -16 0 -22 -2 -12 -5z"/>
<path d="M3711 1094 c0 -11 3 -14 6 -6 3 7 2 16 -1 19 -3 4 -6 -2 -5 -13z"/>
<path d="M3908 1103 c12 -2 30 -2 40 0 9 3 -1 5 -23 4 -22 0 -30 -2 -17 -4z"/>
<path d="M3988 1093 c6 -2 18 -2 25 0 6 3 1 5 -13 5 -14 0 -19 -2 -12 -5z"/>
<path d="M1221 1086 c27 -24 209 -113 209 -102 0 5 -199 106 -207 106 -4 0 -4
-2 -2 -4z"/>
<path d="M2958 1083 c7 -3 16 -2 19 1 4 3 -2 6 -13 5 -11 0 -14 -3 -6 -6z"/>
<path d="M2902 1072 c-13 -2 -26 -11 -29 -20 -6 -13 -8 -13 -14 4 -6 14 -8 9
-8 -19 -1 -21 -6 -81 -13 -133 -9 -75 -9 -108 2 -165 8 -39 18 -72 24 -74 154
-40 255 -100 239 -141 -3 -9 -19 -14 -42 -13 l-36 1 30 8 c22 6 9 8 -47 9 -49
1 -78 -3 -78 -10 0 -6 -6 -7 -12 -2 -18 10 -172 4 -176 -8 -2 -5 -8 -9 -13 -9
-6 0 -7 5 -4 10 3 6 1 10 -4 10 -6 0 -11 -8 -12 -17 0 -16 -1 -15 -8 1 -7 19
-8 19 -13 -2 -3 -11 -1 -23 6 -26 6 -3 -2 -2 -18 1 -20 4 -27 3 -22 -6 5 -7
55 -11 156 -11 148 0 185 4 174 21 -3 5 16 7 42 4 30 -3 53 0 62 8 13 10 14 6
8 -33 -4 -24 -14 -52 -23 -62 -9 -10 -13 -21 -9 -25 21 -21 66 92 66 163 0 39
-47 78 -125 104 -44 14 -82 35 -101 55 -28 27 -33 40 -39 109 -8 85 -1 171 17
211 9 20 18 25 50 25 60 0 174 -20 236 -41 66 -23 104 -25 47 -3 -105 41 -149
55 -209 63 -36 5 -69 11 -73 13 -4 2 -18 2 -31 0z m8 -592 c-8 -6 -53 -9 -100
-8 -83 1 -84 2 -25 7 102 11 141 11 125 1z"/>
<path d="M5202 1010 c0 -14 2 -19 5 -12 2 6 2 18 0 25 -3 6 -5 1 -5 -13z"/>
<path d="M5182 970 c0 -19 2 -27 5 -17 2 9 2 25 0 35 -3 9 -5 1 -5 -18z"/>
<path d="M5186 893 c-11 -61 -21 -183 -16 -183 3 0 3 -28 2 -62 -2 -35 -2 -61
1 -58 6 7 29 331 24 336 -3 3 -8 -12 -11 -33z"/>
<path d="M4762 890 c0 -14 2 -19 5 -12 2 6 2 18 0 25 -3 6 -5 1 -5 -13z"/>
<path d="M1790 790 c-93 -63 -153 -109 -110 -84 33 18 220 146 220 150 0 7 -3
5 -110 -66z"/>
<path d="M5212 830 c0 -14 2 -19 5 -12 2 6 2 18 0 25 -3 6 -5 1 -5 -13z"/>
<path d="M4761 814 c0 -11 3 -14 6 -6 3 7 2 16 -1 19 -3 4 -6 -2 -5 -13z"/>
<path d="M5201 674 c0 -11 3 -14 6 -6 3 7 2 16 -1 19 -3 4 -6 -2 -5 -13z"/>
<path d="M3368 613 c-23 -40 -23 -98 0 -233 11 -63 17 -119 12 -123 -17 -19
-93 -28 -258 -34 l-173 -6 -28 32 c-40 45 -65 95 -58 116 6 14 17 16 75 12 37
-3 76 -8 87 -12 11 -3 7 1 -8 10 -51 29 -121 43 -158 31 -19 -6 -35 -19 -37
-28 -4 -23 59 -120 94 -145 44 -31 92 -34 309 -23 187 11 338 34 387 60 12 7
21 5 30 -8 33 -45 222 -84 295 -61 21 6 74 15 118 19 l80 8 -90 -5 c-233 -13
-309 -5 -360 40 -30 25 -32 49 -20 168 l8 77 -29 18 c-16 10 -31 21 -34 24 -3
3 -30 17 -60 33 l-55 27 49 -6 c26 -3 83 -15 125 -26 106 -28 124 -31 68 -10
-27 9 -45 21 -41 25 4 4 -4 7 -17 7 -21 0 -103 17 -179 35 -20 6 -22 5 -10 -5
15 -12 3 -11 -77 6 -23 4 -31 0 -45 -23z m108 -24 c38 -17 93 -43 121 -58 l53
-26 0 -52 c0 -29 -5 -74 -11 -100 l-10 -48 -87 -28 c-48 -15 -91 -28 -97 -27
-24 1 -85 217 -85 300 0 26 25 70 39 70 5 0 40 -14 77 -31z"/>
<path d="M1350 530 c0 -8 60 -23 67 -17 1 2 -13 8 -32 14 -19 6 -35 8 -35 3z"/>
<path d="M3950 505 c14 -8 30 -14 35 -14 6 0 -1 6 -15 14 -14 8 -29 14 -35 14
-5 0 1 -6 15 -14z"/>
<path d="M1460 496 c0 -2 7 -7 16 -10 8 -3 12 -2 9 4 -6 10 -25 14 -25 6z"/>
<path d="M2561 484 c0 -11 3 -14 6 -6 3 7 2 16 -1 19 -3 4 -6 -2 -5 -13z"/>
<path d="M4040 466 c0 -2 7 -7 16 -10 8 -3 12 -2 9 4 -6 10 -25 14 -25 6z"/>
<path d="M5358 443 c67 -2 177 -2 245 0 67 1 12 3 -123 3 -135 0 -190 -2 -122
-3z"/>
<path d="M1185 415 c-22 -8 -31 -13 -20 -13 11 0 36 6 55 13 45 17 18 17 -35
0z"/>
<path d="M1813 393 c9 -2 25 -2 35 0 9 3 1 5 -18 5 -19 0 -27 -2 -17 -5z"/>
<path d="M1868 373 c12 -2 30 -2 40 0 9 3 -1 5 -23 4 -22 0 -30 -2 -17 -4z"/>
<path d="M4898 313 c18 -2 45 -2 60 0 15 2 0 4 -33 4 -33 0 -45 -2 -27 -4z"/>
</g>
</svg>
